<svg xmlns="http://www.w3.org/2000/svg" height="174.2" width="73.9" viewBox="0 0 73.900002 174.2" id="Layer_2"><style id="style733">.st0{fill:#D2D2CD;} .st1{fill:#FFFFFF;} .st2{fill:#CE6428;}</style><path id="path735" d="M12 13H1c-.5 0-1-.4-1-1V1c0-.5.5-1 1-1h11c.6 0 1 .5 1 1v11c0 .5-.4 1-1 1z" class="st0" fill="#d2d2cd"/><path id="path737" d="M1.3 5.2h3.9l1.3-3.7 1.2 3.8 3.9.1-3.2 2.3 1.1 3.8-3.2-2.3-3.2 2.2 1.2-3.7z" class="st1" fill="#fff"/><path id="path739" d="M27.2 13h-11c-.6 0-1-.4-1-1V1c0-.5.4-1 1-1h11c.5 0 1 .5 1 1v11c0 .5-.4 1-1 1z" class="st0" fill="#d2d2cd"/><path id="path741" d="M16.6 5.2h3.9l1.3-3.7L23 5.3l3.9.1-3.2 2.3 1.1 3.8-3.2-2.3-3.2 2.2 1.2-3.7z" class="st1" fill="#fff"/><path id="path743" d="M42.5 13h-11c-.6 0-1-.4-1-1V1c0-.5.4-1 1-1h11c.5 0 1 .5 1 1v11c0 .5-.5 1-1 1z" class="st0" fill="#d2d2cd"/><path id="path745" d="M31.8 5.2h3.9L37 1.5l1.2 3.8 3.9.1-3.2 2.3 1.1 3.8-3.2-2.3-3.2 2.2 1.2-3.7z" class="st1" fill="#fff"/><path id="path747" d="M57.7 13h-11c-.5 0-1-.4-1-1V1c0-.5.5-1 1-1h11c.6 0 1 .5 1 1v11c0 .5-.5 1-1 1z" class="st0" fill="#d2d2cd"/><path id="path749" d="M47 5.2h3.9l1.3-3.7 1.2 3.8 3.9.1-3.2 2.3 1.1 3.8L52 9.2l-3.2 2.2L50 7.7z" class="st1" fill="#fff"/><path id="path751" d="M72.9 13h-11c-.6 0-1-.4-1-1V1c0-.5.4-1 1-1h11c.5 0 1 .5 1 1v11c0 .5-.5 1-1 1z" class="st0" fill="#d2d2cd"/><path id="path753" d="M62.2 5.2h3.9l1.3-3.7 1.2 3.8 3.9.1-3.2 2.3 1.1 3.8-3.2-2.3-3.2 2.2 1.2-3.7z" class="st1" fill="#fff"/><path id="path755" d="M27.2 29.1h-11c-.6 0-1-.4-1-1v-11c0-.5.4-1 1-1h11c.5 0 1 .5 1 1v11c0 .6-.4 1-1 1z" class="st0" fill="#d2d2cd"/><path id="path757" d="M16.6 21.4h3.9l1.3-3.7 1.2 3.8 3.9.1-3.2 2.3 1.1 3.8-3.2-2.3-3.2 2.2 1.2-3.7z" class="st1" fill="#fff"/><path id="path759" d="M42.5 29.1h-11c-.6 0-1-.4-1-1v-11c0-.5.4-1 1-1h11c.5 0 1 .5 1 1v11c0 .6-.5 1-1 1z" class="st0" fill="#d2d2cd"/><path id="path761" d="M31.8 21.4h3.9l1.3-3.7 1.2 3.8 3.9.1-3.2 2.3 1.1 3.8-3.2-2.3-3.2 2.2 1.2-3.7z" class="st1" fill="#fff"/><path id="path763" d="M57.7 29.1h-11c-.5 0-1-.4-1-1v-11c0-.5.5-1 1-1h11c.6 0 1 .5 1 1v11c0 .6-.5 1-1 1z" class="st0" fill="#d2d2cd"/><path id="path765" d="M47 21.4h3.9l1.3-3.7 1.2 3.8 3.9.1-3.2 2.3 1.1 3.8-3.2-2.3-3.2 2.2 1.2-3.7z" class="st1" fill="#fff"/><path id="path767" d="M72.9 29.1h-11c-.6 0-1-.4-1-1v-11c0-.5.4-1 1-1h11c.5 0 1 .5 1 1v11c0 .6-.5 1-1 1z" class="st0" fill="#d2d2cd"/><path id="path769" d="M62.2 21.4h3.9l1.3-3.7 1.2 3.8 3.9.1-3.2 2.3 1.1 3.8-3.2-2.3-3.2 2.2 1.2-3.7z" class="st1" fill="#fff"/><path id="path771" d="M12 45.2H1c-.5 0-1-.4-1-1v-11c0-.5.5-1 1-1h11c.6 0 1 .5 1 1v11c0 .6-.4 1-1 1z" class="st2" fill="#CE6428"/><path id="path773" d="M1.3 37.5h3.9l1.3-3.7 1.2 3.8 3.9.1L8.4 40l1.1 3.8-3.2-2.3-3.2 2.2L4.3 40z" class="st1" fill="#fff"/><path id="path775" d="M27.2 45.2h-11c-.6 0-1-.4-1-1v-11c0-.5.4-1 1-1h11c.5 0 1 .5 1 1v11c0 .6-.4 1-1 1z" class="st0" fill="#d2d2cd"/><path id="path777" d="M16.6 37.5h3.9l1.3-3.7 1.2 3.8 3.9.1-3.2 2.3 1.1 3.8-3.2-2.3-3.2 2.2 1.2-3.7z" class="st1" fill="#fff"/><path id="path779" d="M42.5 45.2h-11c-.6 0-1-.4-1-1v-11c0-.5.4-1 1-1h11c.5 0 1 .5 1 1v11c0 .6-.5 1-1 1z" class="st0" fill="#d2d2cd"/><path id="path781" d="M31.8 37.5h3.9l1.3-3.7 1.2 3.8 3.9.1-3.2 2.3 1.1 3.8-3.2-2.3-3.2 2.2 1.2-3.7z" class="st1" fill="#fff"/><path id="path783" d="M57.7 45.2h-11c-.5 0-1-.4-1-1v-11c0-.5.5-1 1-1h11c.6 0 1 .5 1 1v11c0 .6-.5 1-1 1z" class="st0" fill="#d2d2cd"/><path id="path785" d="M47 37.5h3.9l1.3-3.7 1.2 3.8 3.9.1-3.2 2.3 1.1 3.8-3.2-2.3-3.2 2.2L50 40z" class="st1" fill="#fff"/><path id="path787" d="M72.9 45.2h-11c-.6 0-1-.4-1-1v-11c0-.5.4-1 1-1h11c.5 0 1 .5 1 1v11c0 .6-.5 1-1 1z" class="st0" fill="#d2d2cd"/><path id="path789" d="M62.2 37.5h3.9l1.3-3.7 1.2 3.8 3.9.1-3.2 2.3 1.1 3.8-3.2-2.3-3.2 2.2 1.2-3.7z" class="st1" fill="#fff"/><path id="path791" d="M12 61.4H1c-.5 0-1-.4-1-1v-11c0-.5.5-1 1-1h11c.6 0 1 .5 1 1v11c0 .5-.4 1-1 1z" class="st2" fill="#CE6428"/><path id="path793" d="M1.3 53.6h3.9l1.3-3.7 1.2 3.8 3.9.1-3.2 2.3 1.1 3.8-3.2-2.3-3.2 2.2 1.2-3.7z" class="st1" fill="#fff"/><path id="path795" d="M16.6 53.6h3.9l1.3-3.7 1.2 3.8 3.9.1-3.2 2.3 1.1 3.8-3.2-2.3-3.2 2.2 1.2-3.7z" class="st1" fill="#fff"/><path id="path797" d="M42.5 61.4h-11c-.6 0-1-.4-1-1v-11c0-.5.4-1 1-1h11c.5 0 1 .5 1 1v11c0 .5-.5 1-1 1z" class="st0" fill="#d2d2cd"/><path id="path799" d="M31.8 53.6h3.9l1.3-3.7 1.2 3.8 3.9.1-3.2 2.3 1.1 3.8-3.2-2.3-3.2 2.2 1.2-3.7z" class="st1" fill="#fff"/><path id="path801" d="M57.7 61.4h-11c-.5 0-1-.4-1-1v-11c0-.5.5-1 1-1h11c.6 0 1 .5 1 1v11c0 .5-.5 1-1 1z" class="st0" fill="#d2d2cd"/><path id="path803" d="M47 53.6h3.9l1.3-3.7 1.2 3.8 3.9.1-3.2 2.3 1.1 3.8-3.2-2.3-3.2 2.2 1.2-3.7z" class="st1" fill="#fff"/><path id="path805" d="M72.9 61.4h-11c-.6 0-1-.4-1-1v-11c0-.5.4-1 1-1h11c.5 0 1 .5 1 1v11c0 .5-.5 1-1 1z" class="st0" fill="#d2d2cd"/><path id="path807" d="M62.2 53.6h3.9l1.3-3.7 1.2 3.8 3.9.1-3.2 2.3 1.1 3.8-3.2-2.3-3.2 2.2 1.2-3.7z" class="st1" fill="#fff"/><path id="path809" d="M12 77.5H1c-.5 0-1-.4-1-1v-11c0-.5.5-1 1-1h11c.6 0 1 .5 1 1v11c0 .5-.4 1-1 1z" class="st2" fill="#CE6428"/><path id="path811" d="M1.3 69.7h3.9L6.5 66l1.2 3.8 3.9.1-3.2 2.3L9.5 76l-3.2-2.3-3.2 2.2 1.2-3.7z" class="st1" fill="#fff"/><path id="path813" d="M27.2 77.5h-11c-.6 0-1-.4-1-1v-11c0-.5.4-1 1-1h11c.5 0 1 .5 1 1v11c0 .5-.4 1-1 1z" class="st2" fill="#CE6428"/><path id="path815" d="M16.6 69.7h3.9l1.3-3.7 1.2 3.8 3.9.1-3.2 2.3 1.1 3.8-3.2-2.3-3.2 2.2 1.2-3.7z" class="st1" fill="#fff"/><path id="path817" d="M42.5 77.5h-11c-.6 0-1-.4-1-1v-11c0-.5.4-1 1-1h11c.5 0 1 .5 1 1v11c0 .5-.5 1-1 1z" class="st0" fill="#d2d2cd"/><path id="path819" d="M31.8 69.7h3.9L37 66l1.2 3.8 3.9.1-3.2 2.3L40 76l-3.2-2.3-3.2 2.2 1.2-3.7z" class="st1" fill="#fff"/><path id="path821" d="M57.7 77.5h-11c-.5 0-1-.4-1-1v-11c0-.5.5-1 1-1h11c.6 0 1 .5 1 1v11c0 .5-.5 1-1 1z" class="st0" fill="#d2d2cd"/><path id="path823" d="M47 69.7h3.9l1.3-3.7 1.2 3.8 3.9.1-3.2 2.3 1.1 3.8-3.2-2.3-3.2 2.2 1.2-3.7z" class="st1" fill="#fff"/><path id="path825" d="M72.9 77.5h-11c-.6 0-1-.4-1-1v-11c0-.5.4-1 1-1h11c.5 0 1 .5 1 1v11c0 .5-.5 1-1 1z" class="st0" fill="#d2d2cd"/><path id="path827" d="M62.2 69.7h3.9l1.3-3.7 1.2 3.8 3.9.1-3.2 2.3 1.1 3.8-3.2-2.3-3.2 2.2 1.2-3.7z" class="st1" fill="#fff"/><path id="path829" d="M12 93.6H1c-.5 0-1-.4-1-1v-11c0-.5.5-1 1-1h11c.6 0 1 .5 1 1v11c0 .6-.4 1-1 1z" class="st2" fill="#CE6428"/><path id="path831" d="M1.3 85.9h3.9l1.3-3.7L7.7 86l3.9.1-3.2 2.3 1.1 3.8-3.2-2.3-3.2 2.2 1.2-3.7z" class="st1" fill="#fff"/><path id="path833" d="M27.2 93.6h-11c-.6 0-1-.4-1-1v-11c0-.5.4-1 1-1h11c.5 0 1 .5 1 1v11c0 .6-.4 1-1 1z" class="st2" fill="#CE6428"/><path id="path835" d="M16.6 85.9h3.9l1.3-3.7L23 86l3.9.1-3.2 2.3 1.1 3.8-3.2-2.3-3.2 2.2 1.2-3.7z" class="st1" fill="#fff"/><path id="path837" d="M31.8 85.9h3.9l1.3-3.7 1.2 3.8 3.9.1-3.1 2.2 1.1 3.8-3.2-2.3-3.2 2.2 1.2-3.7z" class="st1" fill="#fff"/><path id="path839" d="M57.7 93.6h-11c-.5 0-1-.4-1-1v-11c0-.5.5-1 1-1h11c.6 0 1 .5 1 1v11c0 .6-.5 1-1 1z" class="st0" fill="#d2d2cd"/><path id="path841" d="M47 85.9h3.9l1.3-3.7 1.2 3.8 3.9.1-3.2 2.3 1.1 3.8-3.2-2.3-3.2 2.2 1.2-3.7z" class="st1" fill="#fff"/><path id="path843" d="M72.9 93.6h-11c-.6 0-1-.4-1-1v-11c0-.5.4-1 1-1h11c.5 0 1 .5 1 1v11c0 .6-.5 1-1 1z" class="st0" fill="#d2d2cd"/><path id="path845" d="M62.2 85.9h3.9l1.3-3.7 1.2 3.8 3.9.1-3.2 2.3 1.1 3.8-3.2-2.3-3.2 2.2 1.2-3.7z" class="st1" fill="#fff"/><path id="path847" d="M12 109.7H1c-.5 0-1-.4-1-1v-11c0-.5.5-1 1-1h11c.6 0 1 .5 1 1v11c0 .6-.4 1-1 1z" class="st2" fill="#CE6428"/><path id="path849" d="M1.3 102h3.9l1.3-3.7 1.2 3.8 3.9.1-3.2 2.3 1.1 3.8-3.2-2.3-3.2 2.2 1.2-3.7z" class="st1" fill="#fff"/><path id="path851" d="M27.2 109.7h-11c-.6 0-1-.4-1-1v-11c0-.5.4-1 1-1h11c.5 0 1 .5 1 1v11c0 .6-.4 1-1 1z" class="st2" fill="#CE6428"/><path id="path853" d="M16.6 102h3.9l1.3-3.7 1.2 3.8 3.9.1-3.2 2.3 1.1 3.8-3.2-2.3-3.2 2.2 1.2-3.7z" class="st1" fill="#fff"/><path id="path855" d="M42.5 109.7h-11c-.6 0-1-.4-1-1v-11c0-.5.4-1 1-1h11c.5 0 1 .5 1 1v11c0 .6-.5 1-1 1z" class="st2" fill="#CE6428"/><path id="path857" d="M31.8 102h3.9l1.3-3.7 1.2 3.8 3.9.1-3.2 2.3 1.1 3.8-3.2-2.3-3.2 2.2 1.2-3.7z" class="st1" fill="#fff"/><path id="path859" d="M57.7 109.7h-11c-.5 0-1-.4-1-1v-11c0-.5.5-1 1-1h11c.6 0 1 .5 1 1v11c0 .6-.5 1-1 1z" class="st0" fill="#d2d2cd"/><path id="path861" d="M47 102h3.9l1.3-3.7 1.2 3.8 3.9.1-3.2 2.3 1.1 3.8L52 106l-3.2 2.2 1.2-3.7z" class="st1" fill="#fff"/><path id="path863" d="M72.9 109.7h-11c-.6 0-1-.4-1-1v-11c0-.5.4-1 1-1h11c.5 0 1 .5 1 1v11c0 .6-.5 1-1 1z" class="st0" fill="#d2d2cd"/><path id="path865" d="M62.2 102h3.9l1.3-3.7 1.2 3.8 3.9.1-3.2 2.3 1.1 3.8-3.2-2.3-3.2 2.2 1.2-3.7z" class="st1" fill="#fff"/><path id="path867" d="M12 125.9H1c-.5 0-1-.4-1-1v-11c0-.5.5-1 1-1h11c.6 0 1 .5 1 1v11c0 .5-.4 1-1 1z" class="st2" fill="#CE6428"/><path id="path869" d="M1.3 118.1h3.9l1.3-3.7 1.2 3.8 3.9.1-3.2 2.3 1.1 3.8-3.2-2.3-3.2 2.2 1.2-3.7z" class="st1" fill="#fff"/><path id="path871" d="M27.2 125.9h-11c-.6 0-1-.4-1-1v-11c0-.5.4-1 1-1h11c.5 0 1 .5 1 1v11c0 .5-.4 1-1 1z" class="st2" fill="#CE6428"/><path id="path873" d="M16.6 118.1h3.9l1.3-3.7 1.2 3.8 3.9.1-3.2 2.3 1.1 3.8-3.2-2.3-3.2 2.2 1.2-3.7z" class="st1" fill="#fff"/><path id="path875" d="M42.5 125.9h-11c-.6 0-1-.4-1-1v-11c0-.5.4-1 1-1h11c.5 0 1 .5 1 1v11c0 .5-.5 1-1 1z" class="st2" fill="#CE6428"/><path id="path877" d="M31.8 118.1h3.9l1.3-3.7 1.2 3.8 3.9.1-3.2 2.3 1.1 3.8-3.2-2.3-3.2 2.2 1.2-3.7z" class="st1" fill="#fff"/><path id="path879" d="M47 118.1h3.9l1.3-3.7 1.2 3.8 3.9.1-3.2 2.3 1.1 3.8-3.2-2.3-3.2 2.2 1.2-3.7z" class="st1" fill="#fff"/><path id="path881" d="M72.9 125.9h-11c-.6 0-1-.4-1-1v-11c0-.5.4-1 1-1h11c.5 0 1 .5 1 1v11c0 .5-.5 1-1 1z" class="st0" fill="#d2d2cd"/><path id="path883" d="M62.2 118.1h3.9l1.3-3.7 1.2 3.8 3.9.1-3.2 2.3 1.1 3.8-3.2-2.3-3.2 2.2 1.2-3.7z" class="st1" fill="#fff"/><path id="path885" d="M12 142H1c-.5 0-1-.4-1-1v-11c0-.5.5-1 1-1h11c.6 0 1 .5 1 1v11c0 .5-.4 1-1 1z" class="st2" fill="#CE6428"/><path id="path887" d="M1.3 134.2h3.9l1.3-3.7 1.2 3.8 3.9.1-3.2 2.3 1.1 3.8-3.2-2.3-3.2 2.2 1.2-3.7z" class="st1" fill="#fff"/><path id="path889" d="M27.2 142h-11c-.6 0-1-.4-1-1v-11c0-.5.4-1 1-1h11c.5 0 1 .5 1 1v11c0 .5-.4 1-1 1z" class="st2" fill="#CE6428"/><path id="path891" d="M16.6 134.2h3.9l1.3-3.7 1.2 3.8 3.9.1-3.2 2.3 1.1 3.8-3.2-2.3-3.2 2.2 1.2-3.7z" class="st1" fill="#fff"/><path id="path893" d="M42.5 142h-11c-.6 0-1-.4-1-1v-11c0-.5.4-1 1-1h11c.5 0 1 .5 1 1v11c0 .5-.5 1-1 1z" class="st2" fill="#CE6428"/><path id="path895" d="M31.8 134.2h3.9l1.3-3.7 1.2 3.8 3.9.1-3.2 2.3 1.1 3.8-3.2-2.3-3.2 2.2 1.2-3.7z" class="st1" fill="#fff"/><path id="path897" d="M57.7 142h-11c-.5 0-1-.4-1-1v-11c0-.5.5-1 1-1h11c.6 0 1 .5 1 1v11c0 .5-.5 1-1 1z" class="st2" fill="#CE6428"/><path id="path899" d="M47 134.2h3.9l1.3-3.7 1.2 3.8 3.9.1-3.2 2.3 1.1 3.8-3.2-2.3-3.2 2.2 1.2-3.7z" class="st1" fill="#fff"/><path id="path901" d="M72.9 142h-11c-.6 0-1-.4-1-1v-11c0-.5.4-1 1-1h11c.5 0 1 .5 1 1v11c0 .5-.5 1-1 1z" class="st0" fill="#d2d2cd"/><path id="path903" d="M62.2 134.2h3.9l1.3-3.7 1.2 3.8 3.9.1-3.2 2.3 1.1 3.8-3.2-2.3-3.2 2.2 1.2-3.7z" class="st1" fill="#fff"/><path id="path905" d="M12 158.1H1c-.5 0-1-.4-1-1v-11c0-.5.5-1 1-1h11c.6 0 1 .5 1 1v11c0 .6-.4 1-1 1z" class="st2" fill="#CE6428"/><path id="path907" d="M1.3 150.4h3.9l1.3-3.7 1.2 3.8 3.9.1-3.2 2.3 1.1 3.8-3.2-2.3-3.2 2.2 1.2-3.7z" class="st1" fill="#fff"/><path id="path909" d="M27.2 158.1h-11c-.6 0-1-.4-1-1v-11c0-.5.4-1 1-1h11c.5 0 1 .5 1 1v11c0 .6-.4 1-1 1z" class="st2" fill="#CE6428"/><path id="path911" d="M16.6 150.4h3.9l1.3-3.7 1.2 3.8 3.9.1-3.2 2.3 1.1 3.8-3.2-2.3-3.2 2.2 1.2-3.7z" class="st1" fill="#fff"/><path id="path913" d="M42.5 158.1h-11c-.6 0-1-.4-1-1v-11c0-.5.4-1 1-1h11c.5 0 1 .5 1 1v11c0 .6-.5 1-1 1z" class="st2" fill="#CE6428"/><path id="path915" d="M31.8 150.4h3.9l1.3-3.7 1.2 3.8 3.9.1-3.2 2.3 1.1 3.8-3.2-2.3-3.2 2.2 1.2-3.7z" class="st1" fill="#fff"/><path id="path917" d="M57.7 158.1h-11c-.5 0-1-.4-1-1v-11c0-.5.5-1 1-1h11c.6 0 1 .5 1 1v11c0 .6-.5 1-1 1z" class="st2" fill="#CE6428"/><path id="path919" d="M47 150.4h3.9l1.3-3.7 1.2 3.8 3.9.1-3.2 2.3 1.1 3.8-3.2-2.3-3.2 2.2 1.2-3.7z" class="st1" fill="#fff"/><path id="path921" d="M12 174.2H1c-.5 0-1-.4-1-1v-11c0-.5.5-1 1-1h11c.6 0 1 .5 1 1v11c0 .6-.4 1-1 1z" class="st2" fill="#CE6428"/><path id="path923" d="M1.3 166.5h3.9l1.3-3.7 1.2 3.8 3.9.1-3.2 2.3 1.1 3.8-3.2-2.3-3.2 2.2 1.2-3.7z" class="st1" fill="#fff"/><path id="path925" d="M27.2 174.2h-11c-.6 0-1-.4-1-1v-11c0-.5.4-1 1-1h11c.5 0 1 .5 1 1v11c0 .6-.4 1-1 1z" class="st2" fill="#CE6428"/><path id="path927" d="M16.6 166.5h3.9l1.3-3.7 1.2 3.8 3.9.1-3.2 2.3 1.1 3.8-3.2-2.3-3.2 2.2 1.2-3.7z" class="st1" fill="#fff"/><path id="path929" d="M42.5 174.2h-11c-.6 0-1-.4-1-1v-11c0-.5.4-1 1-1h11c.5 0 1 .5 1 1v11c0 .6-.5 1-1 1z" class="st2" fill="#CE6428"/><path id="path931" d="M31.8 166.5h3.9l1.3-3.7 1.2 3.8 3.9.1-3.2 2.3 1.1 3.8-3.2-2.3-3.2 2.2 1.2-3.7z" class="st1" fill="#fff"/><path id="path933" d="M57.7 174.2h-11c-.5 0-1-.4-1-1v-11c0-.5.5-1 1-1h11c.6 0 1 .5 1 1v11c0 .6-.5 1-1 1z" class="st2" fill="#CE6428"/><path id="path935" d="M47 166.5h3.9l1.3-3.7 1.2 3.8 3.9.1-3.2 2.3 1.1 3.8-3.2-2.3-3.2 2.2L50 169z" class="st1" fill="#fff"/><path id="path937" d="M72.9 174.2h-11c-.6 0-1-.4-1-1v-11c0-.5.4-1 1-1h11c.5 0 1 .5 1 1v11c0 .6-.5 1-1 1z" class="st2" fill="#CE6428"/><path id="path939" d="M62.2 166.5h3.9l1.3-3.7 1.2 3.8 3.9.1-3.2 2.3 1.1 3.8-3.2-2.3-3.2 2.2 1.2-3.7z" class="st1" fill="#fff"/><g id="g949"><path id="path941" d="M12 29.1H1c-.5 0-1-.4-1-1v-11c0-.5.5-1 1-1h11c.6 0 1 .5 1 1v11c0 .6-.4 1-1 1z" class="st0" fill="#d2d2cd"/><g id="g945"><path id="path943" d="M12 16.1H1c-.6 0-1 .5-1 1v11c0 .3.1.6.3.7l12.3-12.4c0-.2-.3-.3-.6-.3z" class="st2" fill="#CE6428"/></g><path id="path947" d="M1.3 21.4h3.9l1.3-3.7 1.2 3.8 3.9.1-3.2 2.3 1.1 3.8-3.2-2.3-3.2 2.2 1.2-3.7z" class="st1" fill="#fff"/></g><g id="g959"><path id="path951" d="M27.2 61.4h-11c-.6 0-1-.4-1-1v-11c0-.5.4-1 1-1h11c.5 0 1 .5 1 1v11c0 .5-.4 1-1 1z" class="st0" fill="#d2d2cd"/><g id="g955"><path id="path953" d="M27.2 48.4h-11c-.6 0-1 .5-1 1v11c0 .3.1.6.3.7l12.3-12.4c0-.2-.3-.3-.6-.3z" class="st2" fill="#CE6428"/></g><path id="path957" d="M16.6 53.6h3.9l1.3-3.7 1.2 3.8 3.9.1-3.2 2.3 1.1 3.8-3.2-2.3-3.2 2.2 1.2-3.7z" class="st1" fill="#fff"/></g><g id="g969"><path id="path961" d="M42.5 93.6h-11c-.6 0-1-.4-1-1v-11c0-.5.4-1 1-1h11c.5 0 1 .5 1 1v11c0 .6-.5 1-1 1z" class="st0" fill="#d2d2cd"/><g id="g965"><path id="path963" d="M42.5 80.6h-11c-.6 0-1 .5-1 1v11c0 .3.1.6.3.7l12.3-12.4c-.1-.2-.4-.3-.6-.3z" class="st2" fill="#CE6428"/></g><path id="path967" d="M31.8 85.9h3.9l1.3-3.7 1.2 3.8 3.9.1-3.1 2.2 1.1 3.8-3.2-2.3-3.2 2.2 1.2-3.7z" class="st1" fill="#fff"/></g><g id="g979"><path id="path971" d="M57.7 125.9h-11c-.5 0-1-.4-1-1v-11c0-.5.5-1 1-1h11c.6 0 1 .5 1 1v11c0 .5-.5 1-1 1z" class="st0" fill="#d2d2cd"/><g id="g975"><path id="path973" d="M57.7 112.9h-11c-.6 0-1 .5-1 1v11c0 .3.1.6.3.7l12.3-12.4c-.1-.2-.4-.3-.6-.3z" class="st2" fill="#CE6428"/></g><path id="path977" d="M47 118.1h3.9l1.3-3.7 1.2 3.8 3.9.1-3.2 2.3 1.1 3.8-3.2-2.3-3.2 2.2 1.2-3.7z" class="st1" fill="#fff"/></g><g id="g989"><path id="path981" d="M72.9 158.1h-11c-.5 0-1-.4-1-1v-11c0-.5.5-1 1-1h11c.5 0 1 .5 1 1v11c0 .6-.5 1-1 1z" class="st0" fill="#d2d2cd"/><g id="g985"><path id="path983" d="M72.9 145.1h-11c-.6 0-1 .5-1 1v11c0 .3.1.6.3.7l12.3-12.4c-.1-.2-.4-.3-.6-.3z" class="st2" fill="#CE6428"/></g><path id="path987" d="M62.2 150.4h3.9l1.3-3.7 1.2 3.8 3.9.1-3.2 2.3 1.1 3.8-3.2-2.3-3.2 2.2 1.2-3.7z" class="st1" fill="#fff"/></g></svg>