<?xml version="1.0" encoding="utf-8"?>
<!-- Generator: Adobe Illustrator 21.1.0, SVG Export Plug-In . SVG Version: 6.00 Build 0)  -->
<svg version="1.0" id="Layer_1" xmlns="http://www.w3.org/2000/svg" xmlns:xlink="http://www.w3.org/1999/xlink" x="0px" y="0px"
	 viewBox="0 0 43.5 42.8" style="enable-background:new 0 0 43.5 42.8;" xml:space="preserve">
<style type="text/css">
	.st0{clip-path:url(#SVGID_2_);fill:#FFFFFF;}
	.st1{clip-path:url(#SVGID_2_);}
	
		.st2{clip-path:url(#SVGID_4_);fill:none;stroke:#054150;stroke-width:2;stroke-linecap:round;stroke-linejoin:round;stroke-miterlimit:10;}
	
		.st3{clip-path:url(#SVGID_2_);fill:none;stroke:#054150;stroke-width:2;stroke-linecap:round;stroke-linejoin:round;stroke-miterlimit:10;}
	
		.st4{clip-path:url(#SVGID_6_);fill:none;stroke:#054150;stroke-width:2;stroke-linecap:round;stroke-linejoin:round;stroke-miterlimit:10;}
	
		.st5{clip-path:url(#SVGID_8_);fill:none;stroke:#054150;stroke-width:2;stroke-linecap:round;stroke-linejoin:round;stroke-miterlimit:10;}
	
		.st6{clip-path:url(#SVGID_10_);fill:none;stroke:#054150;stroke-width:2;stroke-linecap:round;stroke-linejoin:round;stroke-miterlimit:10;}
	.st7{clip-path:url(#SVGID_2_);fill:#054150;}
	.st8{clip-path:url(#SVGID_2_);fill:none;stroke:#054150;stroke-miterlimit:10;}
</style>
<g id="Ideas__x26_Advice_icon">
	<g>
		<defs>
			<rect id="SVGID_1_" x="2.3" y="2" width="38.9" height="38.9"/>
		</defs>
		<clipPath id="SVGID_2_">
			<use xlink:href="#SVGID_1_"  style="overflow:visible;"/>
		</clipPath>
		<rect x="1" y="16.1" transform="matrix(0.7071 -0.7071 0.7071 0.7071 -8.8324 21.6769)" class="st0" width="41.5" height="10.8"/>
		<g class="st1">
			<defs>
				<rect id="SVGID_3_" x="2.3" y="2" width="38.9" height="38.9"/>
			</defs>
			<clipPath id="SVGID_4_">
				<use xlink:href="#SVGID_3_"  style="overflow:visible;"/>
			</clipPath>
			
				<rect x="1" y="16.1" transform="matrix(0.7071 -0.7071 0.7071 0.7071 -8.8324 21.6769)" class="st2" width="41.5" height="10.8"/>
			<line class="st2" x1="5.6" y1="30.1" x2="7.9" y2="32.4"/>
		</g>
		<line class="st3" x1="8" y1="27.6" x2="11.7" y2="31.3"/>
		<line class="st3" x1="10.5" y1="25.2" x2="12.8" y2="27.5"/>
		<line class="st3" x1="13" y1="22.7" x2="16.7" y2="26.4"/>
		<line class="st3" x1="15.4" y1="20.2" x2="17.7" y2="22.5"/>
		<line class="st3" x1="17.9" y1="17.8" x2="21.6" y2="21.5"/>
		<line class="st3" x1="20.3" y1="15.3" x2="22.6" y2="17.6"/>
		<line class="st3" x1="22.8" y1="12.9" x2="26.5" y2="16.6"/>
		<line class="st3" x1="25.3" y1="10.4" x2="27.6" y2="12.7"/>
		<line class="st3" x1="27.7" y1="7.9" x2="31.4" y2="11.6"/>
		<g class="st1">
			<defs>
				<rect id="SVGID_5_" x="2.3" y="2" width="38.9" height="38.9"/>
			</defs>
			<clipPath id="SVGID_6_">
				<use xlink:href="#SVGID_5_"  style="overflow:visible;"/>
			</clipPath>
			<line class="st4" x1="30.2" y1="5.5" x2="32.5" y2="7.8"/>
		</g>
		<rect x="19.5" y="4.1" transform="matrix(0.7071 -0.7071 0.7071 0.7071 -9.526 23.5326)" class="st0" width="8.2" height="38.3"/>
		<g class="st1">
			<defs>
				<rect id="SVGID_7_" x="2.3" y="2" width="38.9" height="38.9"/>
			</defs>
			<clipPath id="SVGID_8_">
				<use xlink:href="#SVGID_7_"  style="overflow:visible;"/>
			</clipPath>
			
				<rect x="19.5" y="4.1" transform="matrix(0.7071 -0.7071 0.7071 0.7071 -9.526 23.5326)" class="st5" width="8.2" height="38.3"/>
		</g>
		<polygon class="st0" points="12.9,6.8 3.4,3.2 7.1,12.6 		"/>
		<g class="st1">
			<defs>
				<rect id="SVGID_9_" x="2.3" y="2" width="38.9" height="38.9"/>
			</defs>
			<clipPath id="SVGID_10_">
				<use xlink:href="#SVGID_9_"  style="overflow:visible;"/>
			</clipPath>
			<polygon class="st6" points="12.9,6.8 3.4,3.2 7.1,12.6 			"/>
		</g>
		<polygon class="st7" points="4,3.9 5.3,8.1 8.1,5.3 		"/>
		<rect x="31.1" y="32.7" transform="matrix(0.7072 -0.707 0.707 0.7072 -14.4253 35.2884)" class="st7" width="8.6" height="4.8"/>
		<line class="st8" x1="29.2" y1="34.4" x2="34.6" y2="29"/>
	</g>
</g>
</svg>
