<!--
  ~ This Software is confidential and copyrighted.
  ~ Copyright 2003-2017 Room & Board, Inc.  All Rights Reserved.
  ~
  ~ This software is the proprietary information of Room & Board, Inc.  Use
  ~ is subject to license terms.
  ~
  ~ Title to Software and all associated intellectual property rights is retained
  ~ by Room & Board, Inc. and/or its licensors.
  ~
  ~ Except as specifically authorized in any Supplemental License Terms, this
  ~ software may not be copied.  Unless enforcement is prohibited by
  ~ applicable law, you may not modify, decompile, reverse engineer this
  ~ Software without the express written permission of Room & Board, Inc.
  ~
  ~ No right, title or interest in or to any trademark, service mark, logo or
  ~ trade name of Room & Board, Inc. or its licensors is granted under
  ~ this Agreement.
  -->

<svg xmlns="http://www.w3.org/2000/svg" viewBox="0 0 368 368"><defs><style>.a{fill:#fff;}.b{fill:#333;}</style></defs><title>back-to-top</title><path class="a" d="M184,364C84.7,364,4,283.3,4,184S84.7,4,184,4,364,84.7,364,184,283.3,364,184,364Zm0-320C106.8,44,44,106.8,44,184s62.8,140,140,140,140-62.8,140-140S261.2,44,184,44Z"/><path class="a" d="M184,8c97,0,176,79,176,176S281,360,184,360,8,281,8,184,87,8,184,8m0,320c79.4,0,144-64.6,144-144S263.4,40,184,40,40,104.6,40,184s64.6,144,144,144M184,0C82.5,0,0,82.5,0,184S82.5,368,184,368s184-82.5,184-184S285.5,0,184,0h0Zm0,320c-75,0-136-61-136-136S109,48,184,48s136,61,136,136S259,320,184,320h0Z"/><path class="a" d="M270.4,247.1a4,4,0,0,1-2.8-1.2L184,162.3l-83.6,83.6a3.87,3.87,0,0,1-5.6,0L73.6,224.7a4,4,0,0,1,0-5.7L181.2,111.4a4,4,0,0,1,2.8-1.2,3.78,3.78,0,0,1,2.8,1.2L294.4,219a4,4,0,0,1,0,5.7l-21.2,21.2A4,4,0,0,1,270.4,247.1Z"/><path class="a" d="M184,114.2L291.6,221.8,270.4,243,184,156.6,97.6,243,76.4,221.8,184,114.2m0-8a8.1,8.1,0,0,0-5.7,2.3L70.7,216.2a8,8,0,0,0,0,11.3l21.2,21.2a7.85,7.85,0,0,0,5.7,2.3,8.27,8.27,0,0,0,5.7-2.3L184,168l80.7,80.7a7.85,7.85,0,0,0,5.7,2.3,8.27,8.27,0,0,0,5.7-2.3l21.2-21.2a8,8,0,0,0,0-11.3L189.7,108.6a8.2,8.2,0,0,0-5.7-2.4h0Z"/><path class="b" d="M184,360C87,360,8,281,8,184S87,8,184,8,360,87,360,184,281,360,184,360Zm0-320C104.6,40,40,104.6,40,184s64.6,144,144,144,144-64.6,144-144S263.4,40,184,40Z"/><polygon class="b" points="270.4 243.1 184 156.7 97.6 243.1 76.4 221.8 184 114.2 291.6 221.8 270.4 243.1"/></svg>