<?xml version="1.0" encoding="utf-8"?>
<!-- Generator: Adobe Illustrator 21.1.0, SVG Export Plug-In . SVG Version: 6.00 Build 0)  -->
<svg version="1.0" id="instagram" xmlns="http://www.w3.org/2000/svg" xmlns:xlink="http://www.w3.org/1999/xlink" x="0px" y="0px"
	 viewBox="-236 364.7 593 66.7" style="enable-background:new -236 364.7 593 66.7;" xml:space="preserve">
<style type="text/css">
	.st0{fill:#BC061B;}
	.st1{fill:#FFFFFF;}
	.st2{fill:#43609C;}
	.st3{fill:url(#SVGID_1_);}
	.st4{fill:none;stroke:#FFFFFF;stroke-width:4.0039;stroke-miterlimit:10;}
	.st5{fill:none;stroke:#FFFFFF;stroke-width:4.8937;stroke-miterlimit:10;}
	.st6{fill:url(#SVGID_2_);}
	.st7{fill:url(#SVGID_3_);stroke:#77777A;stroke-width:2;stroke-miterlimit:10;}
	.st8{fill:none;stroke:#77777A;stroke-width:2;stroke-miterlimit:10;}
	.st9{fill:url(#SVGID_4_);stroke:#77777A;stroke-width:2;stroke-miterlimit:10;}
	.st10{fill:url(#SVGID_5_);stroke:#77777A;stroke-width:1.5;stroke-miterlimit:10;}
	.st11{fill:url(#SVGID_6_);stroke:#77777A;stroke-width:1.5;stroke-miterlimit:10;}
	.st12{fill:#FFFFFF;stroke:#77777A;stroke-width:1.5;stroke-miterlimit:10;}
	.st13{fill:#1DA1F2;}
	.st14{fill:#77777A;}
	.st15{fill:#4DBC15;}
</style>
<g>
	<path class="st0" d="M-185.9,372.5h-38.2c-3,0-5.4,2.4-5.4,5.4v38.2c0,3,2.4,5.4,5.4,5.4h38.2c3,0,5.4-2.4,5.4-5.4v-38.2
		C-180.5,374.9-182.9,372.5-185.9,372.5z"/>
	<path class="st1" d="M-202.2,407.7c-2.6-0.2-3.7-1.5-5.8-2.8c-1.1,5.9-2.5,11.6-6.6,14.6c-1.3-9,1.9-15.7,3.3-22.8
		c-2.5-4.2,0.3-12.5,5.5-10.5c6.4,2.5-5.5,15.4,2.5,17.1c8.4,1.7,11.8-14.5,6.6-19.8c-7.5-7.6-21.8-0.2-20.1,10.7
		c0.4,2.7,3.2,3.5,1.1,7.2c-4.8-1.1-6.2-4.9-6.1-9.9c0.3-8.3,7.4-14.1,14.6-14.9c9-1,17.5,3.3,18.7,11.8
		C-187.1,398-192.5,408.4-202.2,407.7z"/>
</g>
<g>
	<path class="st2" d="M-122.2,372.5h-38.2c-3,0-5.4,2.4-5.4,5.4v38.2c0,3,2.4,5.4,5.4,5.4h38.2c3,0,5.4-2.4,5.4-5.4v-38.2
		C-116.9,374.9-119.3,372.5-122.2,372.5z"/>
	<g id="Layer_3" transform="matrix(1.7982054,0,0,1.8129643,376.63343,326.35613)">
		<path id="path3336" class="st1" d="M-282.7,53.8h-5.4V40.8h-2.7v-4.5h2.7v-2.7c0-3.7,1.5-5.9,5.8-5.9h3.6v4.5h-2.3
			c-1.7,0-1.8,0.6-1.8,1.8l0,2.3h4.1l-0.5,4.5h-3.6V53.8z"/>
	</g>
</g>
<g>
	
		<radialGradient id="SVGID_1_" cx="-86.9641" cy="421.6364" r="49.7337" gradientTransform="matrix(0.9873 0 0 0.9949 -2.0188 1.8917)" gradientUnits="userSpaceOnUse">
		<stop  offset="0" style="stop-color:#FFD676"/>
		<stop  offset="0.2463" style="stop-color:#F2A454"/>
		<stop  offset="0.3793" style="stop-color:#F05C3C"/>
		<stop  offset="0.6995" style="stop-color:#C22F86"/>
		<stop  offset="0.9568" style="stop-color:#6666AD"/>
		<stop  offset="0.9852" style="stop-color:#5C6CB2"/>
	</radialGradient>
	<path class="st3" d="M-53.3,412.5c0,5.9-3,9-8.9,9h-30.9c-5.9,0-8.9-3.1-8.9-9v-30.8c0-5.9,3-9.1,8.9-9.1h30.9c5.9,0,8.9,3.1,8.9,9
		V412.5z"/>
	<g>
		<path class="st4" d="M-61.3,404.9c0,5-4.1,9.1-9.1,9.1H-85c-5,0-9.1-4.1-9.1-9.1v-15.7c0-5,4.1-9.1,9.1-9.1h14.6
			c5,0,9.1,4.1,9.1,9.1V404.9z"/>
		<path class="st5" d="M-69.7,397c-0.1,4.5-3.6,8.1-8,8.1c-4.4,0-8-3.6-8-8.1c0-4.5,3.6-8.2,8-8.1C-72.3,389.1-69.6,392.6-69.7,397z
			"/>
		<ellipse class="st1" cx="-67.8" cy="387" rx="2.3" ry="2.3"/>
	</g>
</g>
<g>
	<linearGradient id="SVGID_2_" gradientUnits="userSpaceOnUse" x1="88.8043" y1="397.5" x2="137.7784" y2="397.5">
		<stop  offset="0" style="stop-color:#E52D27"/>
		<stop  offset="1" style="stop-color:#BF171D"/>
	</linearGradient>
	<path class="st6" d="M132.4,373H94.2c-3,0-5.4,2.4-5.4,5.4v38.2c0,3,2.4,5.4,5.4,5.4h38.2c3,0,5.4-2.4,5.4-5.4v-38.2
		C137.8,375.4,135.4,373,132.4,373z"/>
	<g id="XMLID_1_">
		<path id="Triangle" class="st1" d="M101.5,412.1l27.1-14L101.5,384V412.1z"/>
	</g>
</g>
<g>
	<linearGradient id="SVGID_3_" gradientUnits="userSpaceOnUse" x1="327.1697" y1="401.8183" x2="327.1697" y2="418.2788">
		<stop  offset="0.2453" style="stop-color:#FFFFFF"/>
		<stop  offset="0.3136" style="stop-color:#F9F9F9;stop-opacity:0.9366"/>
		<stop  offset="0.409" style="stop-color:#E6E6E6;stop-opacity:0.8482"/>
		<stop  offset="0.5202" style="stop-color:#C9C9C9;stop-opacity:0.745"/>
		<stop  offset="0.6436" style="stop-color:#9F9F9F;stop-opacity:0.6306"/>
		<stop  offset="0.7768" style="stop-color:#6A6A6A;stop-opacity:0.507"/>
		<stop  offset="0.9162" style="stop-color:#2A2A2A;stop-opacity:0.3777"/>
		<stop  offset="1" style="stop-color:#000000;stop-opacity:0.3"/>
	</linearGradient>
	<rect x="305.5" y="401.8" class="st7" width="43.3" height="16.5"/>
	<rect x="311.8" y="377.1" class="st8" width="30.7" height="24.6"/>
	<line class="st8" x1="316.9" y1="383.9" x2="337.5" y2="383.9"/>
	<line class="st8" x1="316.9" y1="389.9" x2="337.5" y2="389.9"/>
	<line class="st8" x1="316.9" y1="395.9" x2="337.5" y2="395.9"/>
</g>
<linearGradient id="SVGID_4_" gradientUnits="userSpaceOnUse" x1="263.5034" y1="379.3581" x2="263.5034" y2="414.871">
	<stop  offset="0.1325" style="stop-color:#FFFFFF"/>
	<stop  offset="0.3238" style="stop-color:#F6FAFC;stop-opacity:0.9338"/>
	<stop  offset="0.6324" style="stop-color:#DFEDF6;stop-opacity:0.8271"/>
	<stop  offset="1" style="stop-color:#BAD8EB;stop-opacity:0.7"/>
</linearGradient>
<rect x="235.4" y="379.4" class="st9" width="56.2" height="35.5"/>
<linearGradient id="SVGID_5_" gradientUnits="userSpaceOnUse" x1="235.8784" y1="403.8581" x2="253.7117" y2="403.8581">
	<stop  offset="0" style="stop-color:#FFFFFF"/>
	<stop  offset="0.2206" style="stop-color:#F6FAFC;stop-opacity:0.8677"/>
	<stop  offset="0.5763" style="stop-color:#DFEDF6;stop-opacity:0.6542"/>
	<stop  offset="1" style="stop-color:#BAD8EB;stop-opacity:0.4"/>
</linearGradient>
<line class="st10" x1="235.9" y1="414.4" x2="253.7" y2="393.4"/>
<linearGradient id="SVGID_6_" gradientUnits="userSpaceOnUse" x1="273.295" y1="403.8581" x2="291.1284" y2="403.8581">
	<stop  offset="0" style="stop-color:#FFFFFF"/>
	<stop  offset="0.2206" style="stop-color:#F6FAFC;stop-opacity:0.8677"/>
	<stop  offset="0.5763" style="stop-color:#DFEDF6;stop-opacity:0.6542"/>
	<stop  offset="1" style="stop-color:#BAD8EB;stop-opacity:0.4"/>
</linearGradient>
<line class="st11" x1="291.1" y1="414.4" x2="273.3" y2="393.4"/>
<polygon class="st12" points="236.6,379.7 263.6,400.9 290.1,379.8 "/>
<g>
	<path class="st13" d="M4.6,372.5h-38.2c-3,0-5.4,2.4-5.4,5.4v38.2c0,3,2.4,5.4,5.4,5.4H4.6c3,0,5.4-2.4,5.4-5.4v-38.2
		C10,374.9,7.6,372.5,4.6,372.5z"/>
	<path class="st1" d="M5.9,384.4c-1.5,0.7-3.1,1.1-4.8,1.3c1.7-1,3.1-2.7,3.7-4.6c-1.6,1-3.4,1.7-5.3,2c-1.5-1.6-3.7-2.6-6.1-2.6
		c-4.6,0-8.4,3.7-8.4,8.4c0,0.7,0.1,1.3,0.2,1.9c-7-0.3-13.1-3.7-17.3-8.7c-0.7,1.2-1.1,2.7-1.1,4.2c0,2.9,1.5,5.5,3.7,7
		c-1.4,0-2.7-0.4-3.8-1c0,0,0,0.1,0,0.1c0,4.1,2.9,7.4,6.7,8.2c-0.7,0.2-1.4,0.3-2.2,0.3c-0.5,0-1.1-0.1-1.6-0.2
		c1.1,3.3,4.2,5.7,7.8,5.8c-2.9,2.2-6.5,3.6-10.4,3.6c-0.7,0-1.3,0-2-0.1c3.7,2.4,8.1,3.8,12.8,3.8c15.4,0,23.8-12.8,23.8-23.8
		c0-0.4,0-0.7,0-1.1C3.3,387.5,4.8,386,5.9,384.4z"/>
</g>
<g>
	<path class="st14" d="M213.7,422h-55.5c-3.3,0-6-2.7-6-6v-37c0-3.3,2.7-6,6-6h55.5c3.3,0,6,2.7,6,6v37
		C219.7,419.3,217,422,213.7,422z"/>
	<g>
		<path class="st1" d="M159.7,386.4h9.2c3.4,0,5.3,2.1,5.3,4.8c0,2.4-1.5,3.9-3.2,4.3c2,0.3,3.6,2.3,3.6,4.6c0,2.9-1.9,5-5.4,5h-9.4
			V386.4z M168.2,394.1c1.7,0,2.6-1,2.6-2.4s-1-2.4-2.6-2.4h-5.2v4.8H168.2z M168.3,402.2c1.8,0,2.9-1,2.9-2.6c0-1.4-1-2.6-2.9-2.6
			h-5.4v5.2H168.3z"/>
		<path class="st1" d="M177.5,386.4h2.9v18.7h-2.9V386.4z"/>
		<path class="st1" d="M183.1,398.3c0-3.9,2.7-7.1,6.9-7.1c4.3,0,7,3.2,7,7.1c0,3.9-2.6,7.1-7,7.1
			C185.8,405.4,183.1,402.2,183.1,398.3z M194,398.3c0-2.4-1.4-4.5-3.9-4.5c-2.5,0-3.9,2.1-3.9,4.5c0,2.4,1.4,4.5,3.9,4.5
			C192.6,402.8,194,400.7,194,398.3z"/>
		<path class="st1" d="M201,406.4c1.1,1.3,2.5,1.7,4.3,1.7c1.9,0,4-0.9,4-3.7v-1.6c-1,1.3-2.6,2.2-4.3,2.2c-3.4,0-6-2.5-6-6.9
			c0-4.4,2.5-6.9,6-6.9c1.7,0,3.2,0.8,4.3,2.2v-1.9h2.9v12.8c0,4.9-3.6,6.2-6.9,6.2c-2.3,0-4-0.5-5.7-2L201,406.4z M209.3,395.7
			c-0.6-1-2.1-1.8-3.5-1.8c-2.3,0-3.8,1.7-3.8,4.3c0,2.6,1.5,4.3,3.8,4.3c1.4,0,2.8-0.8,3.5-1.8V395.7z"/>
	</g>
</g>
<g>
	<path class="st15" d="M68.8,373H30.6c-3,0-5.4,2.4-5.4,5.4v38.2c0,3,2.4,5.4,5.4,5.4h38.2c3,0,5.4-2.4,5.4-5.4v-38.2
		C74.2,375.4,71.8,373,68.8,373z"/>
	<g>
		<g>
			<polygon class="st1" points="53.9,415.3 65.7,415.3 65.7,394.8 42,388 42,379.7 33.7,379.7 33.7,415.3 45.6,415.3 45.6,403.4 
				53.9,403.4 			"/>
		</g>
	</g>
</g>
</svg>
